<svg xmlns="http://www.w3.org/2000/svg" fill="none" viewBox="0 0 135 135">
  <path d="M67.067 0a67.067 67.067 0 0165.229 82.665L67.067 67.067V0z" fill="#4ADEE0"/>
  <path d="M132.296 82.665a67.067 67.067 0 01-57.376 51.008 67.071 67.071 0 01-26.959-2.317l19.106-64.289 65.229 15.598z" fill="#1890FF"/>
  <path d="M47.961 131.356A67.067 67.067 0 01.883 56.217l66.184 10.85-19.106 64.289z" fill="#A1DBFB"/>
  <path d="M.884 56.217a67.067 67.067 0 0136.928-49.5l29.255 60.35L.884 56.217z" fill="#FF9E57"/>
  <path d="M37.812 6.717A67.068 67.068 0 0158.614.535l8.453 66.532-29.255-60.35z" fill="#6559FF"/>
  <path d="M58.614.535A67.068 67.068 0 0167.067 0v67.067L58.614.535z" fill="#CD81FF"/>
</svg>
