<svg xmlns="http://www.w3.org/2000/svg" fill="none" viewBox="0 0 56 56">
  <g filter="url(#U9AK4yK0Bga)" clip-path="url(#U9AK4yK0Bgb)">
    <path d="M55.76 21.68c-.32-2.08-1.36-3.84-3.04-4.96-.8-.48-1.12-1.28-1.52-2.24l-.16-.4c-1.2-2.64-3.36-4.48-6.24-5.2-.56-.16-.96-.4-1.36-.96-1.68-2.08-4.08-3.04-6.88-2.72-.56.08-.72 0-.88-.08-1.04-.64-2.08-.88-3.12-1.12l-.4-.08H30.4l-.24.08-.72.24c-.56.16-1.2.32-1.84.64l-.16-.08c-3.68-1.12-7.04-.32-10 2.24l-.08.08c-2.56-.4-4.96.56-6.88 2.72-.08.16-.16.16-.24.16-3.44.64-5.84 2.72-6.88 6.16-.32 1.04-.72 1.76-1.28 2.48-.8 1.04-1.36 2.24-1.68 3.6 0 .16-.08.24-.08.4-.08.24-.16.56-.24.88a10.2 10.2 0 000 3.12c0 .24.08.48.16.64 0 .08 0 .08.08.16 1.2 4.8 4.32 7.76 9.04 8.72.8.16 1.6.16 2.32.16h1.04c1.28.08 1.44.24 1.68.72.24.56.56 1.04.88 1.36l.08.08c2.08 2.56 5.04 3.92 8.64 3.92 2.8 0 6.08 2.88 6.8 5.2.16.48.16 1.04.24 1.6 0 .64.08 1.36.32 2.08l.24.8h9.68l-.16-1.28c-.08-.4-.08-.8-.16-1.12v-.16c-.08-.88-.24-1.92-.4-2.88 4.32-.4 7.44-2.72 9.36-6.72.48-.96.72-2.08.88-3.36v-.08c2.8-1.44 4.4-3.68 4.72-6.32.56-3.04.56-5.84.24-8.48zm-36.48-6l-.08.16c-.64.88-2.56 2.96-5.52 2.8h-.4c-.72 0-1.6-.24-2.48-.64-.8-.4-.8-.96-.64-1.28.32-.8 1.04-.48 1.28-.4h.08c2.64 1.04 4.56.56 6.24-1.6l.08-.08c.16-.24.64-.88 1.36-.4.24.16.4.4.4.64.08.32-.16.64-.32.8zm4.64 12.72c-.08.64-.24 1.36-.56 2.16-.16.32-.32.72-.64.88-.08 0-.16.08-.32.08-.08 0-.24 0-.4-.08-.72-.32-.48-1.04-.32-1.28 0-.08.08-.08.08-.16.08-.16.16-.4.24-.56.08-.24.16-.48.24-.64.16-1.2-.32-2.24-1.36-3.36l-.08-.08c-.08 0-.08-.08-.16-.08-.72-.64-.4-1.12-.24-1.36.16-.24.4-.32.56-.32.24 0 .48.08.8.32.72.8 2.08 2.24 2.16 4.48zm1.92-14.8c.32-.24.72-.24 1.12-.16 2.72.48 4.96 2.8 4.88 5.12v.16c0 .24 0 .96-.8 1.04h-.08c-.24 0-.4-.08-.56-.16-.24-.24-.32-.56-.32-.8v-.16c-.24-1.92-1.52-3.12-3.44-3.44-.4-.08-1.28-.16-1.2-1.04.08-.24.24-.48.4-.56zm7.36 16.72c-.24-2.08-1.36-3.52-3.44-4.48-2.56-1.28-4.16-3.52-4.56-6.64v-.4c0-.32.08-1.04.8-1.12.8-.08.88.72.96.96v.08c.48 3.28 2.32 5.36 5.44 6.08 2.4.56 4.56-.08 6.4-1.92.8-.8 1.36-1.76 1.68-2.8.08-.32.16-.72.56-.88.16-.08.4-.16.72 0 .56.24.72.72.48 1.44-.8 2.48-2.4 4.32-4.88 5.36-1.04.48-2.24.64-3.2.72-.16 0-.32 0-.4.08 0 .08.08.16.16.24.56.72.88 1.68.96 2.96 0 .24.08.64-.16.96-.08.08-.24.24-.56.32h-.08c-.4.08-.8-.16-.88-.96zm10.64 5.12c-1.44 1.76-3.36 2.72-5.6 2.72-1.2 0-2.4-.32-3.52-.96-.64-.4-.88-.8-.64-1.36.08-.24.24-.4.48-.48.32-.08.64 0 .88.16l.08.08c2.8 1.28 4.96.88 7.04-1.36l.08-.08c.16-.16.72-.8 1.28-.24.64.56.08 1.28-.08 1.52zm1.84-14.24v.16c0 .32 0 .96-.72 1.04h-.16c-.16 0-.32-.08-.48-.16-.32-.24-.32-.56-.4-.8-.48-3.28-1.92-4.8-5.28-5.44h-.16c-.24 0-.96-.16-.96-.88.08-.88.88-.88 1.2-.88 3.44.16 6.4 2.96 6.88 6.4v.32l.08.24z" fill="#51D5FF"/>
  </g>
  <defs>
    <clipPath id="U9AK4yK0Bgb">
      <path fill="#fff" d="M0 0h56v56H0z"/>
    </clipPath>
    <filter id="U9AK4yK0Bga" x="-10.04" y="-6.08" width="76.016" height="68.16" filterUnits="userSpaceOnUse" color-interpolation-filters="sRGB">
      <feFlood flood-opacity="0" result="BackgroundImageFix"/>
      <feColorMatrix in="SourceAlpha" values="0 0 0 0 0 0 0 0 0 0 0 0 0 0 0 0 0 0 127 0" result="hardAlpha"/>
      <feOffset/>
      <feGaussianBlur stdDeviation="5"/>
      <feComposite in2="hardAlpha" operator="out"/>
      <feColorMatrix values="0 0 0 0 0.317647 0 0 0 0 0.835294 0 0 0 0 1 0 0 0 0.5 0"/>
      <feBlend in2="BackgroundImageFix" result="effect1_dropShadow_109_179"/>
      <feBlend in="SourceGraphic" in2="effect1_dropShadow_109_179" result="shape"/>
    </filter>
  </defs>
</svg>
