<svg xmlns="http://www.w3.org/2000/svg" fill="none" viewBox="0 0 51 51">
  <g clip-path="url(#petrY8IcOqa)">
    <path d="M9.544 12.094c1.239.219 2.332.51 3.425.802.218-.51.437-.947.655-1.385-1.165-.364-2.477-.655-3.788-.947a.756.756 0 00-.875.583.729.729 0 00.583.947zm2.113-3.57c1.166.146 2.332.365 3.497.729a9.942 9.942 0 011.239-1.239c-1.457-.437-2.914-.801-4.517-1.02-.437-.073-.802.219-.875.656-.072.437.219.801.656.874z" fill="#51D5FF"/>
    <g filter="url(#petrY8IcOqb)">
      <path d="M38.833 23.897c-.146-.874-.364-1.821-.802-2.623.219-.801.438-2.55-.655-5.027-1.239-2.841-3.643-4.153-4.59-4.517-.437-.729-.947-1.384-1.457-2.04 1.748-2.186 3.06-4.299 3.788-6.484l.364-.073-6.994-1.457-.364.728c-.292.656-.583.656-1.02.875 0-.802-.146-1.603-.292-2.405v.146h-6.484l.146.146c.291 2.477.073 4.444-.51 5.683-3.352 1.092-5.902 3.861-7.067 7.795v-.218l-1.967 1.384-.438.219v.072c-.218.146-.364.292-.582.438-1.676 1.384-2.915 3.205-3.57 5.1-.802 2.258-.729 4.59.218 6.557.146.291.292.655.51.947-.218 1.238-.146 2.477.073 3.788.583 2.842 2.186 5.61 4.517 7.65.874.729 1.894 1.822 2.987 2.915C17.996 47.066 21.857 51 25.354 51h.219c.801-.073 1.603-.219 2.404-.583 5.392-2.331 9.909-9.836 9.544-16.101a12.521 12.521 0 00-.801-3.716c.219-.291.437-.51.583-.801 1.311-1.822 1.748-3.862 1.53-5.902zm-12.896-9.326c.437.583.802 1.239 1.166 1.895 1.894-1.02 3.06-1.749 4.954-2.113.437.364.874.801 1.312 1.311-2.259.365-3.862 1.166-6.266 2.55-.364.219-.874.073-1.093-.291 0 0 0-.073-.073-.073-.51-1.239-1.311-2.404-2.186-3.424.802-.365 1.53-.437 2.186.145zm-5.683 12.532c-.364.073-.728.073-.947.146-.437.145-.874-.146-.947-.51-.146-.438.146-.875.51-.948a3.404 3.404 0 011.239-.218c.437-.073.947-.073 1.457-.073.073 0 .218-.073.291-.073.073-.073.146-.146.146-.291.146-2.259-.146-4.08-.656-5.683.073-.874.219-1.749.51-2.55 1.239 2.04 1.894 4.736 1.676 8.233 0 .51-.292 1.02-.583 1.311-.364.364-.801.51-1.384.51-.51.073-.947.146-1.312.146zm14.353-7.577c-2.331.291-3.788 1.165-5.974 2.623.073.655.073 1.384.073 2.112 0 .875-.146 1.749-.292 2.696-.073.219.073.364.219.437.51.219 1.02.51 1.457.802.51.291 1.166.728 1.676 1.093.874.582 0 1.821-.875 1.238-.145-.073-.51-.291-.655-.437a8.798 8.798 0 01.073 3.643c-.146.801-.365 1.603-.583 2.404-.073.874.145 1.676.291 2.55.292 1.166.583 2.332.219 3.934-.073.438-.51.656-.947.583-.438-.073-.656-.51-.583-.947.218-1.166.073-2.113-.219-3.06a57.818 57.818 0 01-2.04 4.226l-.218.437a.838.838 0 01-1.02.364.838.838 0 01-.365-1.02l.219-.437c.947-1.894 2.113-4.153 2.914-6.484a.997.997 0 01-.291.218c-1.603 1.239-3.716 2.259-5.319 2.769-.437.146-.874-.073-.947-.51-.146-.437.073-.874.51-.947 1.457-.437 3.351-1.457 4.809-2.55.728-.583 1.384-1.166 1.748-1.749.51-.801.437-1.894.219-2.768-.146-.802-.51-1.457-1.02-2.04-.729-.437-1.093-1.239-.947-2.04.145-.875.218-1.676.291-2.477 0-.802 0-1.603-.073-2.332 0-.291.073-.583.364-.728 2.478-1.749 4.299-2.769 6.995-3.133.145 0 .291 0 .364-.073.146.51.219 1.093.219 1.53 0 .073-.146.073-.292.073z" fill="#51D5FF"/>
    </g>
    <path d="M44.734 15.154c-2.623-.801-5.1-1.238-7.65-1.238.365.291.802.874 1.166 1.603 1.967.072 3.934.51 5.974 1.092.437.146.875-.072.947-.51a.658.658 0 00-.437-.947zm-.364 3.789c-1.821-.583-3.57-.874-5.319-1.02.146.583.219 1.02.292 1.603a28.06 28.06 0 014.59.874c.437.146.874-.073.947-.51.073-.437-.146-.874-.51-.947z" fill="#51D5FF"/>
  </g>
  <defs>
    <clipPath id="petrY8IcOqa">
      <path fill="#fff" d="M0 0h51v51H0z"/>
    </clipPath>
    <filter id="petrY8IcOqb" x="-4.212" y="-9.126" width="53.099" height="70.126" filterUnits="userSpaceOnUse" color-interpolation-filters="sRGB">
      <feFlood flood-opacity="0" result="BackgroundImageFix"/>
      <feColorMatrix in="SourceAlpha" values="0 0 0 0 0 0 0 0 0 0 0 0 0 0 0 0 0 0 127 0" result="hardAlpha"/>
      <feOffset/>
      <feGaussianBlur stdDeviation="5"/>
      <feComposite in2="hardAlpha" operator="out"/>
      <feColorMatrix values="0 0 0 0 0.317647 0 0 0 0 0.835294 0 0 0 0 1 0 0 0 0.5 0"/>
      <feBlend in2="BackgroundImageFix" result="effect1_dropShadow_109_162"/>
      <feBlend in="SourceGraphic" in2="effect1_dropShadow_109_162" result="shape"/>
    </filter>
  </defs>
</svg>
