<svg xmlns="http://www.w3.org/2000/svg" fill="none" viewBox="0 0 787 23">
  <path fill-rule="evenodd" clip-rule="evenodd" d="M0 7.913c78.248 0 52.89 2.816 131.138 2.816s52.89-4.096 131.138-4.096 52.89-2.048 131.138-2.048S446.304 1 524.552 1c78.249 0 52.89 11.266 131.138 11.266 78.249 0 52.89-5.121 131.139-5.121v15.362H0V7.913z" fill="#1200FF" fill-opacity=".3"/>
  <path d="M0 7.913c78.248 0 52.89 2.816 131.138 2.816s52.89-4.096 131.138-4.096 52.89-2.048 131.138-2.048S446.304 1 524.552 1c78.249 0 52.89 11.266 131.138 11.266 78.249 0 52.89-5.121 131.139-5.121" stroke="#3C30E1" stroke-width="2" stroke-linejoin="round"/>
</svg>
