<svg xmlns="http://www.w3.org/2000/svg" fill="none" viewBox="0 0 787 47">
  <path fill-rule="evenodd" clip-rule="evenodd" d="M0 15.474c78.248 0 52.89 5.897 131.138 5.897s52.89-8.577 131.138-8.577 52.89-4.289 131.138-4.289S446.304 1 524.552 1c78.249 0 52.89 23.588 131.138 23.588 78.249 0 52.89-10.722 131.139-10.722v32.165H0V15.474z" fill="#FF8328" fill-opacity=".3"/>
  <path d="M0 15.474c78.248 0 52.89 5.897 131.138 5.897s52.89-8.577 131.138-8.577 52.89-4.289 131.138-4.289S446.304 1 524.552 1c78.249 0 52.89 23.588 131.138 23.588 78.249 0 52.89-10.722 131.139-10.722" stroke="#C98452" stroke-width="2" stroke-linejoin="round"/>
</svg>
