<svg xmlns="http://www.w3.org/2000/svg" fill="none" viewBox="0 0 787 91">
  <path fill-rule="evenodd" clip-rule="evenodd" d="M0 28.948c78.248 0 52.89 11.794 131.138 11.794s52.89-17.154 131.138-17.154 52.89-8.578 131.138-8.578S446.304 0 524.552 0c78.249 0 52.89 47.175 131.138 47.175 78.249 0 52.89-21.443 131.139-21.443v64.33H0V28.948z" fill="#94D9FF" fill-opacity=".3"/>
  <path d="M0 47.801c78.248 0 52.89 11.794 131.138 11.794s52.89-17.155 131.138-17.155 52.89-8.577 131.138-8.577 52.89-15.01 131.138-15.01c78.249 0 52.89 47.175 131.138 47.175 78.249 0 52.89-21.443 131.139-21.443" stroke="#75B7DB" stroke-width="2" stroke-linejoin="round"/>
</svg>
