<svg xmlns="http://www.w3.org/2000/svg" fill="none" viewBox="0 0 787 135">
  <path fill-rule="evenodd" clip-rule="evenodd" d="M0 43.827c78.248 0 52.89 17.447 131.138 17.447s52.89-25.378 131.138-25.378 52.89-12.69 131.138-12.69S446.304 1 524.552 1c78.249 0 52.89 69.791 131.138 69.791 78.249 0 52.89-31.723 131.139-31.723v95.17H0V43.827z" fill="#00FCFF" fill-opacity=".3"/>
  <path d="M0 43.827c78.248 0 52.89 17.447 131.138 17.447s52.89-25.378 131.138-25.378 52.89-12.69 131.138-12.69S446.304 1 524.552 1c78.249 0 52.89 69.791 131.138 69.791 78.249 0 52.89-31.723 131.139-31.723" stroke="#00BBBD" stroke-width="2" stroke-linejoin="round"/>
</svg>
