<svg xmlns="http://www.w3.org/2000/svg" fill="none" viewBox="0 0 1018 1029">
  <path fill-rule="evenodd" clip-rule="evenodd" d="M496.952 755.08l-14.501 2.9-8.701 5.801-2.901-5.801-2.9 2.9 8.701-5.8-2.9-17.402 2.9-14.502-2.9-11.601-2.901-8.701 5.801-5.8 2.9 2.9 2.901-5.801 5.8 5.801 2.9 2.9 2.901 2.901 2.9 2.9-2.9 11.601 5.8 14.502-2.9 8.701 2.9 8.7-2.9 2.901z" fill="#002279" fill-opacity=".22" stroke="#FFAF51" stroke-opacity=".13" stroke-width="2" stroke-linejoin="round"/>
  <path fill-rule="evenodd" clip-rule="evenodd" d="M441.847 740.578l2.9-2.9-2.9-26.103 11.601-5.8 2.9 5.8 5.801-5.8 5.801-11.602 5.8-2.9-2.9 2.9 2.9 8.701 2.901 17.402-2.901 2.9 2.901 17.402-8.701 17.402-17.402-2.9-2.901-2.901-2.9 2.901-5.8-2.901 2.9-8.7v-2.901z" fill="#002279" fill-opacity=".22" stroke="#FFAF51" stroke-opacity=".13" stroke-width="2" stroke-linejoin="round"/>
  <path fill-rule="evenodd" clip-rule="evenodd" d="M496.952 755.08l2.901-2.9-2.901-8.701 2.901-2.901-5.801-2.9 2.9-17.402 2.901-11.601-2.901-2.9-5.8-2.901-2.901-2.9-5.8-2.9-2.9-5.801-2.901 5.801-5.8 2.9 2.9-5.801-5.801-2.9-2.9-11.601-11.601-23.203 11.601-2.9 5.801-2.9 2.9-2.9 5.801 2.9 2.9-11.601 8.701-2.901 14.501-5.8 2.901-8.701 2.9-2.901 5.801 2.901 8.7 2.9 2.901 5.801 17.402 5.8 2.9 2.901-2.9 2.9 2.9 2.9 5.801 2.901 2.9 2.9 2.9 2.9 2.9 2.9-2.9-2.9 2.9 2.9 8.701 5.801 2.901 2.9 5.8 2.901 5.801 2.9 2.9 2.9 5.801 2.901-2.9 2.9-2.901 2.9 2.901 2.901 2.9 20.302-8.701 2.9 2.9 5.801-2.9 2.9-2.9 2.9 5.8 2.9-5.8 5.801-2.901 11.601 5.801 2.901-2.9 14.501 2.9 5.801-5.801 5.8-5.8 2.901-2.901 8.701-2.9 2.9-2.9 2.9-2.901-2.9-5.8-2.9-5.801-2.901-5.8 5.801-5.801-2.9 2.9 2.9-11.601-2.9-2.9 5.8-5.801 5.801-2.9-2.9-2.9 2.9-5.801 2.9-2.9-2.9-2.901-2.9-2.9-2.901-5.801 2.901-5.8-8.701 2.9-5.801 5.801-2.9 2.9-2.901 5.801-2.9-5.801-2.9-2.9-2.901-2.901-5.8z" fill="#002279" fill-opacity=".22" stroke="#FFAF51" stroke-opacity=".13" stroke-width="2" stroke-linejoin="round"/>
  <path fill-rule="evenodd" clip-rule="evenodd" d="M467.949 757.98l5.801 2.9 8.701 2.901 2.9-5.801 2.9-2.9 8.701 5.8 5.801 2.901 5.801 2.9-2.901 2.9-5.8 2.901-5.801 2.9-2.9 5.801-5.801 2.9-2.9 2.9 2.9 5.801-2.9-2.901 2.9 2.901 2.9 2.9 2.901 2.9-5.801 5.801-11.601 5.801 2.9 2.9-2.9 11.601-2.9-11.601-5.801 2.9-2.9-5.8-2.901-5.801-2.9-2.9-8.701-5.801-2.9 5.801-5.801 5.8-2.9 5.801-2.9 8.701-2.901-2.9-2.9-2.901-2.9-8.701-2.901-2.9-11.601 2.9-2.9-2.9-2.901 2.9-5.8-17.402-2.9-2.9-8.701 2.9-2.901 5.801-2.9 5.801-5.801 11.601-11.601 5.801-2.9 2.9-14.502 2.9-5.8-5.8 2.9-5.801 2.9-2.9-5.8-2.901-5.801 2.901-2.9 2.9-5.801-2.9-2.9-5.801 2.9-5.801-2.9-2.9 2.9-2.9-2.9-11.601-5.801-2.901-2.9-2.9-5.801-2.9 2.901-5.801 2.9 2.9 2.9-2.9-2.9-5.801 2.9-2.9 8.701 2.9 2.9-2.9 2.901-2.9 8.701-2.901 8.701-2.9 5.8-2.9 14.502 2.9 14.501 2.9 2.901 2.901-2.901-2.901 5.801-2.9 2.9-2.9 5.801-2.9-2.9 11.601 2.9-2.901 2.9-8.7 2.9-2.901 20.303 5.801 5.8-2.9 5.801-2.901 5.8 2.901-2.9 5.8 5.801 5.801 2.9-2.901 2.9 2.901 2.901 2.9h14.501z" fill="#002279" fill-opacity=".22"/>
  <path d="M485.351 792.784l-2.9-5.801 2.9-2.9 5.801-2.9 2.9-5.801 5.801-2.9 5.8-2.901 2.901-2.9-5.801-2.9-5.801-2.901-8.701-5.8-2.9 2.9-2.9 5.801-8.701-2.901-5.801-2.9h-14.501l-2.901-2.9-2.9-2.901-2.9 2.901-5.801-5.801 2.9-5.8-5.8-2.901-5.801 2.901-5.8 2.9-20.303-5.801-2.9 2.901-2.9 8.7-2.9 2.901 2.9-11.601-5.801 2.9-2.9 2.9-5.801 2.9m101.511 40.605l-2.9-2.901m2.9 2.901l2.9 2.9 2.901 2.9-5.801 5.801-11.601 5.801 2.9 2.9-2.9 11.601-2.9-11.601-5.801 2.9-2.9-5.8-2.901-5.801-2.9-2.9-8.701-5.801-2.9 5.801-5.801 5.8-2.9 5.801-2.9 8.701-2.901-2.9-2.9-2.901-2.9-8.701-2.901-2.9-11.601 2.9-2.9-2.9-2.901 2.9-5.8-17.402-2.9-2.9-8.701 2.9-2.901 5.801-2.9 5.801-5.801 11.601-11.601 5.801-2.9 2.9-14.502 2.9-5.8-5.8 2.9-5.801 2.9-2.9-5.8-2.901-5.801 2.901-2.9 2.9-5.801-2.9-2.9-5.801 2.9-5.801-2.9-2.9 2.9-2.9-2.9-11.601-5.801-2.901-2.9-2.9-5.801-2.9 2.901-5.801 2.9 2.9 2.9-2.9-2.9-5.801 2.9-2.9 8.701 2.9 2.9-2.9 2.901-2.9 8.701-2.901 8.701-2.9 5.8-2.9 14.502 2.9 14.501 2.9m0 0l2.901 2.901" stroke="#FFAF51" stroke-opacity=".13" stroke-width="2" stroke-linejoin="round"/>
  <path fill-rule="evenodd" clip-rule="evenodd" d="M363.538 746.379l-2.9-5.801-2.9-2.9-5.801-8.701-5.801-5.801-2.9-5.8-5.801-5.801 2.901-5.8-2.901-5.801 5.801-5.801-2.9-2.9-2.901-5.801 2.901-2.9 14.501-2.9 2.901 2.9 8.701 5.801 2.9-2.901 2.9 8.701 2.9 2.901 5.801 2.9 2.9 2.9 2.901 2.901 2.9 5.8-2.9 5.801-2.901 5.8 8.701 2.901 11.602 2.9 2.9 11.601-5.801 2.901-2.9 8.7-2.9 2.901 2.9-2.901-5.801-5.8-2.9 2.9-5.801 2.9 2.901 2.901-2.901-2.901-2.9-2.9-17.402-2.9z" fill="#002279" fill-opacity=".22"/>
  <path d="M398.342 752.179l2.9-8.7 5.801-2.901-2.9-11.601-11.602-2.9-8.701-2.901 2.901-5.8 2.9-5.801-2.9-5.8-2.901-2.901-2.9-2.9-5.801-2.9-2.9-2.901-2.9-8.701-2.9 2.901-8.701-5.801-2.901-2.9-14.501 2.9-2.901 2.9 2.901 5.801 2.9 2.9-5.801 5.801 2.901 5.801-2.901 5.8 5.801 5.801 2.9 5.8 5.801 5.801 5.801 8.701 2.9 2.9 2.9 5.801 17.402 2.9 2.9 2.9m14.502 0l-2.9 2.901m2.9-2.901l-5.801-5.8-2.9 2.9-5.801 2.9m0 0l2.901 2.901" stroke="#FFAF51" stroke-opacity=".13" stroke-width="2" stroke-linejoin="round"/>
  <path fill-rule="evenodd" clip-rule="evenodd" d="M467.95 691.273l-5.801 2.9-5.801 17.402-2.9-5.8-5.801 5.8-2.9 2.901 2.9 26.102-17.401 2.901-5.801 2.9-17.402-5.801-2.9-11.601-5.801-2.9-14.501-2.901 2.9-2.9 2.9-8.701-2.9-5.8-2.9-2.901-2.901-2.9-5.8-2.9-2.9-2.901-2.901-11.601-2.9 5.801-2.9-5.801-5.801 2.9-2.9-5.8 2.9-2.9 2.9-2.901 5.801-2.9-2.9-5.801-5.801-2.9-2.9-2.9-5.801-2.901-2.9-2.9-2.901 2.9-5.8-2.9-17.402-5.801-5.801-5.8 2.901-5.801-2.901-5.8-5.8-5.801-2.901-2.9 2.901-8.701 2.9-2.901 5.801-2.9 5.8-2.9 2.901-2.9 5.8 2.9 2.901-2.9 2.9 2.9 8.701-2.9 17.402-2.901 2.9-2.9-2.9-5.801 2.9-2.9 2.9-2.9 2.901-2.901 2.9-2.9 2.9-2.9 2.9 5.8 2.901 5.801 11.601 2.9 5.801 11.602-2.901 5.8 2.901 2.9 5.8-2.9 2.9 2.9 5.801 5.801 2.9 8.701 5.801-2.9 5.801 14.501 11.601 2.901 5.8-2.901 2.901-2.9 5.8-2.9 2.901 2.9 2.9-2.9 5.801 2.9-2.901 2.9-2.9 2.901-2.9 2.9 2.9 2.9 2.9 2.9 5.801 2.901 2.9 2.9-14.501 2.9 5.8 23.203 2.901 8.701v2.9z" fill="#002279" fill-opacity=".22" stroke="#FFAF51" stroke-opacity=".13" stroke-width="2" stroke-linejoin="round"/>
  <path fill-rule="evenodd" clip-rule="evenodd" d="M209.822 581.061l2.9 2.901 5.801 2.9 5.801 2.9 20.302 2.901 5.8 5.8 5.801 11.601 5.801 2.901 2.9-2.901-2.9 5.801 2.9 5.801 2.9 5.8 5.801-5.8 11.601 2.9 5.801 2.9 5.8-5.8 2.901 2.9 2.9-2.9 5.801 2.9 5.8 2.9 2.901 8.701-2.901 5.801 5.801 5.8 2.9 5.801 20.302 2.9 2.901-2.9 2.9 2.9 5.801 2.901 2.9 2.9 2.9 2.9 5.801 5.801-5.801 2.9-2.9 2.901-2.9 2.9-2.901 2.9-14.501 2.9 2.9 5.801 2.9 2.9-2.9 5.801-2.9 8.701 2.9 8.701 5.801 5.8 5.8 2.901 5.801 8.701 2.9 5.8 2.9 2.901-5.8 2.9-2.9 2.9-11.602 2.9-5.8 2.901-5.801 2.9-5.801 2.9-5.8-2.9-5.801 2.9 2.901 2.901-2.901 2.9-5.8 2.9-2.901 2.901-11.601 2.9-2.9-5.801-8.701 2.901-2.9 2.9-5.801-5.801 2.9-2.9 2.901-8.701-2.901-5.801-5.8 5.801-2.901-2.9-2.9 2.9-8.701-2.9-8.701-2.901-2.9-2.9 5.8-8.701 5.801-2.9-2.9-2.9 2.9-2.901-2.9-5.8-5.801 2.9-17.402-2.9-5.8 2.9-2.901 2.9-2.9 2.901-2.9 2.9-8.701 2.9-2.9-2.9-5.801-2.9-2.9-5.801-5.801-2.9-5.801-2.901-2.9 2.901-11.601-2.901-2.9 2.901-5.801 2.9-8.701 5.801-20.302 2.9-2.9 5.801-2.901 2.9-5.8 2.9-8.701 5.801-2.901-2.901-5.8 2.901-2.9 5.8-2.9 5.801-2.901 8.701-2.9 2.9-2.9 5.801-2.901 5.8-2.9 2.901-5.801 2.9-2.9-2.9-11.601-5.801-5.801-5.8-2.9 2.9-5.801-5.801-2.9-5.8 5.8-8.701 2.9-5.801-5.8-8.701 2.9-11.601-8.7-8.701-5.801-2.9-2.9-2.901-2.9-8.7-8.702-2.901-2.9-2.9-5.8-2.9-8.702-2.901-2.9-8.701 2.9-5.8 5.801-8.701 2.9-2.9 2.9 2.9-2.9-8.701 2.9-8.701 2.9-5.801 2.901-2.9 8.701-2.9 2.9-2.901 5.801-5.8 5.8-8.701 8.702-5.801 5.8-2.9 2.9 2.9 2.9-2.9 2.901-2.9-2.9-5.801 5.8-2.9 5.801-2.901 2.9 2.901 5.801-5.801 2.9-5.8 8.701 2.9 2.9-2.9 5.801 2.9 2.9-2.9 2.901-5.801 2.9-2.9 2.9 2.9 11.602-2.9 2.9 2.9 2.9-2.9 2.9 2.9 2.901-2.9 8.701 2.9 8.701-2.9 2.9-2.901 2.9-5.8-2.9-2.901 2.9-8.701 2.901 2.901 2.9-2.901 2.9-5.8 5.801-2.9 2.9 5.8 5.801 8.701 2.9 2.9 14.502 2.901-2.901-2.901 5.801 2.901 2.9-2.901z" fill="#002279" fill-opacity=".22" stroke="#FFAF51" stroke-opacity=".13" stroke-width="2" stroke-linejoin="round"/>
  <path fill-rule="evenodd" clip-rule="evenodd" d="M389.641 943.6l-5.8-2.901-2.901-2.9-2.9-2.9-2.9 2.9-2.901-2.9-2.9 2.9-5.8 2.9-8.701 5.801-5.801 2.9-8.701-2.9-5.8-2.9-2.901-2.901-29.003 5.801-8.701-2.9-2.9-5.801-2.9 2.9-2.901 2.901-5.8-2.901-2.901-2.9-5.8-5.8-2.901 14.501-2.9 5.801-2.9 2.9-2.9-5.801-2.901-2.9-2.9-2.9-2.9-2.901-2.901-5.8-2.9-2.9-5.801-2.901-2.9 5.801 2.9 2.9 2.901 2.9-2.901 5.801-5.8 2.9-2.901 2.901-2.9 5.8-2.9 2.901-2.9 2.9-2.901-2.9-5.8-2.901-2.901 2.901-2.9 2.9-8.701 2.9-2.9 5.801 2.9 5.8-2.9 2.901 2.9 2.9-2.9 2.9-20.302-2.9-5.801-2.9 2.9 5.8-2.9-2.9-11.601-8.701-2.901-8.701-5.8-5.8-2.9 2.9-5.801-11.601-5.801-2.901 2.901-2.9-2.901-5.801-2.9-5.8-2.9-8.701-5.801-2.9-2.9-2.901-2.9 8.701-8.701-2.9-2.901 5.801-5.8-2.901-2.9-2.9-2.9 2.9-8.702 2.901-2.9 2.9-5.8-2.9-2.901-2.901-2.9-2.9-5.801-2.9-2.9-5.801-5.8 2.9-2.901 5.801-2.9 2.9-2.9 2.901-2.901-5.801 2.9-5.801 2.9-2.9-2.9-14.502-2.9-2.9-2.9-2.9-2.9-2.9-2.901 2.9-5.8-2.9 5.8-8.701-2.9-2.901 2.9-2.9-2.9-2.9 2.9-2.901 2.9-2.9-2.9-5.801-2.9-20.302 2.9-2.9-5.8-2.9-11.602-2.901-8.7-2.9-2.901-8.701 2.9-2.9-2.9-2.9-2.9 2.9 2.9-5.801 5.8-5.8 2.9 2.9 11.602-5.801 5.8-5.8 2.9 2.9 2.901 2.9 5.8 5.801 2.901-2.9 8.701-2.901 2.9-2.9 11.602-5.801 2.9-5.8 2.9 2.9 5.8-2.9 2.901-2.9 2.9-5.801 2.9-2.9 2.901-5.801 2.9-8.701 2.9-5.801 2.901-5.8 5.801-2.9 2.9 2.9 2.9-5.801 8.701-2.9 5.801-2.9 2.9-2.901 8.701-5.8 17.402-5.801 2.9-2.9 5.801-2.901 5.8 2.901 11.602-2.901 5.8 2.901 5.801 2.9 2.9 2.9 5.801 5.801 2.9 2.9 5.801-2.9 5.8-2.9 2.901-2.901 2.9-2.9 5.8-2.9 2.901 2.9 17.402-2.9 5.8 5.8-2.9 2.901 2.9 2.9-5.8 2.9-5.801 8.701 2.9 2.901 2.901 2.9 8.701 2.9 8.7-2.9 2.901 2.9 5.8-5.8 2.901 2.9-2.901 2.9-2.9 11.601 5.801 5.801 2.9-2.9 2.9-2.901 5.801 5.801 8.701-2.9 11.601 2.9 5.801 2.9 5.8 2.901 2.901 2.9-2.901 8.701 2.901 5.8-2.901 5.801 2.901 5.801 2.9 2.9 2.9-2.9 2.901-2.901 5.8 2.901 5.801 2.9-2.901 2.9-2.9 2.901 5.801 5.8 2.9-2.9 14.502-2.9 8.7-5.801 8.701 2.9 2.901-17.402 2.9-8.7 5.801-2.901 5.8 2.901 5.801 8.7-2.9 40.605 2.9 8.701-2.9 5.8-2.901 2.901-5.8 2.9-2.901 17.402-2.9 23.202 2.9 11.601-2.9 2.901 2.9 2.9-2.9 2.9 5.801 14.502-2.901 8.701zm243.625-29.003l-2.9-11.601-5.801-5.801-5.8-14.502-2.9-2.9-2.901 2.9-2.9-2.9-2.9 2.9-2.901-5.8 2.901-2.901-8.701-5.8-2.901-2.9 2.901-2.901-2.901-2.9-2.9-2.9-2.9-5.801-2.901-2.9-11.601 5.8-5.8 5.801-5.801-2.9-2.9 2.9-14.502-2.9-8.701-2.901 5.801-2.9-2.9-5.801 2.9-2.9-2.9-2.9 2.9-8.701 2.9-2.9 2.901-2.901 5.8-5.8 14.502-2.901-2.901-5.8-5.8-2.901-5.801-2.9-2.9 2.9-2.9-5.8-5.801-8.701-2.9-11.601 5.8 2.9 5.801-5.801 5.8 2.901 5.801 2.9 2.9 2.9 2.901-2.9 2.9 2.9 2.9-5.8 2.901-8.701-2.901-2.901 11.601-5.8-2.9-2.9 2.9-8.701-5.8-8.701 2.9-8.701 5.801-11.601-5.801-2.901 2.9-2.9 2.901-2.9-2.901-5.801 2.901-2.9 5.8 2.9-2.9-14.502-2.9-8.7 2.9-2.901 2.9-5.8-5.8-5.801-8.701-2.9-5.801-2.901-2.9-2.9 2.9-5.801 2.901-2.9 2.9 2.9 2.9 2.901 2.9 2.9 2.901-2.9 11.601 2.9 5.801 2.9 8.701 2.901 5.8-2.901 2.9-2.9 2.901-5.801 2.9 2.901 2.9 2.9 5.801-2.9 8.701 2.9 8.701 2.9 2.9 8.701-5.8 11.602-2.901 8.7 2.901 8.701 8.7 2.901 2.901 40.604 2.9 2.9 5.801 2.901 2.9-8.701 2.9 8.701 8.701 8.701 5.801 2.9 5.8 5.8 2.901 2.901 2.9 2.9 2.9-2.9 8.701 8.701 2.901-5.801 2.9-5.801 5.801 2.901 2.9 5.8 2.9 17.402 5.801 5.801-2.901 5.8 8.701 2.901-2.9 5.8-5.801-2.9-11.601 2.9 2.901 5.801-5.801 2.9-2.9 5.801 5.8 5.8-2.9 2.901 2.9 2.9-5.8 5.801-8.701 5.8 5.8 14.502-2.9 2.9 8.701 5.801-8.701 5.8-2.9-2.9-5.801 2.9-2.9 2.901-5.801 8.701-8.701 5.8-5.8 5.801 5.8 8.701-5.8 5.8-2.901-2.9-2.9 2.9-11.601 2.901 2.9 5.8-2.9-2.9-2.901 5.801-2.9-2.901-5.8-8.701-8.701-2.9-2.901 2.9-5.8-2.9-2.901-2.9z" fill="#002279" fill-opacity=".22" stroke="#FFAF51" stroke-opacity=".13" stroke-width="2" stroke-linejoin="round"/>
  <path fill-rule="evenodd" clip-rule="evenodd" d="M749.279 641.968l-8.701 5.8-2.9-2.9-2.9-2.9-2.901-2.9-2.9 5.8-2.9-2.9-5.801 2.9-14.501 2.9-5.801-5.8-5.801-2.9-8.701 2.9-2.9 2.9-2.9 5.801-2.9 2.9-5.801 2.9-5.801-2.9-5.8 2.9-2.901 8.701-8.701-2.9-2.9-2.9-5.8-2.901-5.801 2.901-2.9 2.9-2.901-5.801-2.9 2.901-2.9 5.8-5.801 2.901-2.9-2.901-8.701-2.9-2.9-2.9-11.602 2.9-5.8-2.9-2.901-2.901-1.055-.084-1.232-1.232-6.597 4.217h.184c-1.644 2.01-13.669-11.116-14.502-8.701l-2.9-2.901-5.801-2.9-2.9-2.9 2.9-2.9-2.9-2.901-5.801-5.8-14.501-5.801-8.701-2.9-5.801-2.901-2.9-2.9 2.9-2.9 8.701-2.901-2.9-23.202-2.901-2.9 2.901-2.901 2.9-2.9-5.801-2.9 2.901-5.801 2.9-5.8-2.9-11.602-5.801-5.8 2.9-11.602 2.901-14.501 5.8-2.9 2.901 2.9 2.9-8.701 5.801 2.9 2.9-2.9 5.8-2.9 2.901-5.801 11.601 2.9 8.701 2.901 8.701 2.9 5.8 5.801 2.901-5.801 8.701 2.9 5.8-2.9 8.701 5.801 2.901 2.9-2.901 2.9 2.901 2.901 2.9 2.9 5.8-5.801 2.901-2.9 2.9-2.9 2.9-2.901 14.502-17.402 5.8 5.801 5.801 2.9 2.9 2.901 5.801-5.801 2.9-5.801 2.901-2.9 8.701 2.9 5.8-5.8 2.9-2.9 2.901-8.701 8.701 5.8 2.9 5.801 5.801 5.8 2.9 5.801-2.9 2.9 2.9 2.901 2.9 2.9 2.901 8.701 2.9 5.801 2.9 5.8 2.9 2.9 2.901 2.901 5.8-2.901 2.901-2.9 5.8 2.9-2.9 8.701-2.9 2.901 2.9 8.701 5.801 2.9 5.8 8.701 2.901 5.8 2.9 5.801 2.9 2.9-2.9 2.901-2.9 2.9 2.9 11.601-2.9 2.901 2.9 5.8-2.9 2.9 2.9 2.901 2.9 2.9 2.9 8.701-2.9 5.801-2.9 2.9-5.801 8.701z" fill="#002279" fill-opacity=".22"/>
  <path d="M557.859 650.669c.833-2.415 12.858 10.711 14.502 8.701h-.184l6.597-4.217 1.232 1.232 1.055.084 2.901 2.901 5.8 2.9 11.602-2.9 2.9 2.9 8.701 2.9 2.9 2.901 5.801-2.901 2.9-5.8 2.9-2.901 2.901 5.801 2.9-2.9 5.801-2.901 5.8 2.901 2.9 2.9 8.701 2.9 2.901-8.701 5.8-2.9 5.801 2.9 5.801-2.9 2.9-2.9 2.9-5.801 2.9-2.9 8.701-2.9 5.801 2.9 5.801 5.8 14.501-2.9 5.801-2.9 2.9 2.9 2.9-5.8 2.901 2.9 2.9 2.9 2.9 2.9 8.701-5.8 5.801-8.701 2.9-2.9 2.9-5.801-2.9-8.701-2.9-2.9-2.9-2.901 2.9-2.9-2.9-5.8 2.9-2.901-2.9-11.601 2.9-2.9 2.9-2.901-2.9-2.9-2.9-5.801-2.901-5.8-5.8-8.701-5.801-2.9-2.9-8.701 2.9-2.901 2.9-8.701-5.8-2.9-2.901 2.9-5.8 2.901-2.901-2.901-2.9-2.9-2.9-5.8-2.9-5.801-2.901-8.701-2.9-2.9-2.9-2.901 2.9-2.9-2.9-5.801-5.801-5.8-2.9-5.801-8.701-5.8-2.901 8.701-2.9 2.9-5.8 5.8-8.701-2.9-2.901 2.9-2.9 5.801-5.801 5.801-2.9-2.901-5.801-2.9-5.8-5.801-14.502 17.402-2.9 2.901-2.9 2.9-2.901 2.9-5.8 5.801-2.9-2.9-2.901-2.901 2.901-2.9-2.901-2.9-8.701-5.801-5.8 2.9-8.701-2.9-2.901 5.801-5.8-5.801-8.701-2.9-8.701-2.901-11.601-2.9-2.901 5.801-5.8 2.9-2.9 2.9-5.801-2.9-2.9 8.701-2.901-2.9-5.8 2.9-2.901 14.501-2.9 11.602 5.801 5.8 2.9 11.602-2.9 5.8-2.901 5.801 5.801 2.9-2.9 2.9-2.901 2.901 2.901 2.9 2.9 23.202-8.701 2.901-2.9 2.9 2.9 2.9 5.801 2.901 8.701 2.9 14.501 5.801 5.801 5.8 2.9 2.901-2.9 2.9 2.9 2.9 5.801 2.9 2.9 2.901zm0 0l-.028.788" stroke="#FFAF51" stroke-opacity=".13" stroke-width="2" stroke-linejoin="round"/>
  <path fill-rule="evenodd" clip-rule="evenodd" d="M305.533 621.666l-5.801 2.9-2.9-2.9-5.801 5.8-5.801-2.9-2.9-2.9-14.501 5.8-2.901-5.8-2.9-5.801 2.9-5.801-2.9 2.901-2.9-2.901-8.701-11.601-5.801-5.8-5.8-2.901-17.402-2.9-5.801-2.9-5.801-2.901-2.9-8.701 5.801-8.7-2.901-2.901 2.901-2.9 8.701-2.9 5.8-8.701-2.9-2.901 5.801-8.701 2.9-5.8 8.701-5.801 8.701-8.701 2.9 2.901 5.801-2.901 5.8-2.9 2.901-2.9 2.9-2.901 2.9-2.9-2.9-11.601 2.9-2.9 2.901-2.901-2.901-2.9-2.9-2.9 2.9-5.801 5.801-5.801 2.9 2.901 5.801-5.801 5.8 5.801 2.901 8.701 5.8-2.901 8.701-2.9-2.9-5.801 2.9-5.8 11.601 2.9 5.801 2.9 11.601 2.901 5.801 8.701 2.9-2.901 2.9-2.9-2.9-2.9 2.9-5.801-2.9-2.9 2.9-2.901 2.901 2.901 2.9-2.901-2.9-2.9-2.901-2.9 2.901-2.9 5.8-5.801 5.801-2.9 2.9 2.9 5.801-5.801 8.701-5.8 8.701 2.9 2.9 2.9 2.9-2.9 5.801 2.9 2.9-5.8 2.901 2.9 2.9-2.9 5.801 5.8 2.9-2.9 2.9-2.9 5.801-2.901 17.402 5.801 2.9 2.9 2.9 2.901 2.901 2.9-5.801 5.801 8.701-2.901 2.9 2.901-2.9 2.9 2.9 5.8-2.9 5.801 5.8-2.9 8.701 2.9 11.602 2.9 8.701-2.9 2.9 5.801 2.9 2.9 2.9 2.9-5.8 8.701 2.9 5.801 2.9 5.8 2.901-2.9 5.8 2.9 2.901 2.901 2.9 2.9 5.801 8.701 2.9 5.801-8.701 2.9-2.9 14.501-2.901 2.901 5.801 14.501 2.9 2.901-2.9 8.701-2.9 5.8 5.8 8.701-2.9 2.9-2.9 2.901 2.9 2.9 2.9 11.601-2.9 14.502-8.701 2.9-2.9 8.701-2.901 11.601-17.401 2.901-5.801 2.9-5.801 8.701-2.9-2.901-5.801-2.9-5.8-2.9 2.9-2.9 2.9-2.901 2.901-2.9-5.801-2.9-2.9 2.9-2.9-2.9-2.901 2.9-2.9 2.9-2.9 2.901-5.801-5.801 2.9 5.801-8.701-2.901-11.601-14.501-5.8 2.9-2.901-8.701-5.8-2.9-2.901-2.901 2.901-2.9-2.901 2.9-8.701-2.9 2.901-5.8-5.801-11.602-8.701-2.9-5.8-5.801-2.901-5.8-2.9 2.9-2.9 2.9-2.901 2.901-2.9 2.9-2.9 2.9 2.9 2.901-2.9 2.9-5.801 5.801-11.601 2.9-11.601-2.9-2.901 2.9-2.9-2.9-5.801 2.9-5.8 2.9-2.9 2.9-5.801 2.901-2.9 8.701z" fill="#002279" fill-opacity=".22"/>
  <path d="M407.043 610.064l2.901 2.901 5.8 2.9 2.901 8.701 5.8-2.9 11.601 14.501 8.701 2.901-2.9-5.801 5.801 5.801 2.9-2.901 2.9-2.9 2.901-2.9 2.9 2.9 2.9-2.9 5.801 2.9-2.901 2.9-2.9 2.901-2.9 2.9 5.8 2.9 5.801 2.9 2.9 2.901 5.801-8.701 5.801-2.9 17.401-2.901 2.901-11.601 2.9-8.701 8.701-2.9 2.9-14.502-2.9-11.601-2.9-2.9 2.9-2.901 2.9-2.9-5.8-8.701 2.9-5.8 2.9-8.701-2.9-2.901-5.801-14.501 2.901-2.901 2.9-14.501 8.701-2.9-2.9-5.801-5.801-8.701-2.9-2.9-2.901-2.901-5.8-2.9-2.901 2.9-2.9-5.8-2.9-5.801 5.8-8.701-2.9-2.9-2.9-2.9-2.9-5.801-8.701 2.9-11.602-2.9-8.701-2.9-5.8 2.9 2.9-5.801-2.9-5.8 2.9-2.9-2.9-2.901-8.701 2.901 5.801-5.801-2.901-2.9-2.9-2.901-2.9-2.9-17.402-5.801-5.801 2.901-2.9 2.9-2.9 2.9-5.801-5.8-2.9 2.9-2.901-2.9-2.9 5.8-5.801-2.9-2.9 2.9-2.9-2.9-8.701-2.9-8.701 5.8-5.801 5.801-2.9-2.9-5.801 2.9-5.8 5.801-2.901 2.9 2.901 2.9 2.9 2.9-2.9 2.901-2.901-2.901-2.9 2.901 2.9 2.9-2.9 5.801 2.9 2.9-2.9 2.9-2.9 2.901-5.801-8.701-11.601-2.901-5.801-2.9-11.601-2.9-2.9 5.8 2.9 5.801-8.701 2.9-5.8 2.901-2.901-8.701-5.8-5.801-5.801 5.801-2.9-2.901-5.801 5.801-2.9 5.801 2.9 2.9 2.901 2.9-2.901 2.901-2.9 2.9 2.9 11.601-2.9 2.9-2.9 2.901-2.901 2.9-5.8 2.9-5.801 2.901-2.9-2.901-8.701 8.701-8.701 5.801-2.9 5.8-5.801 8.701 2.9 2.901-5.8 8.701-8.701 2.9-2.901 2.9 2.901 2.901-5.801 8.7 2.9 8.701 5.801 2.901 5.801 2.9 17.402 2.9 5.8 2.901 5.801 5.8 8.701 11.601 2.9 2.901 2.9-2.901-2.9 5.801 2.9 5.801 2.901 5.8 14.501-5.8 2.9 2.9 5.801 2.9 5.801-5.8 2.9 2.9 5.801-2.9 2.9-8.701 5.801-2.901 2.9-2.9 5.8-2.9 5.801-2.9 2.9 2.9 2.901-2.9 11.601 2.9 11.601-2.9 5.801-5.801 2.9-2.9-2.9-2.901 2.9-2.9 2.9-2.9 2.901-2.901 2.9-2.9 2.9-2.9 2.901 5.8 5.8 5.801 8.701 2.9 5.801 11.602-2.901 5.8 8.701 2.9zm0 0l2.901-2.9" stroke="#FFAF51" stroke-opacity=".13" stroke-width="2" stroke-linejoin="round"/>
  <path fill-rule="evenodd" clip-rule="evenodd" d="M633.267 914.597l-5.8 2.9-2.901-2.9 5.801 11.601 2.9 2.9 2.9 5.801-11.601 2.9-2.9-2.9-2.9-5.801-11.602-2.9-5.8 2.9-11.601-2.9-2.901 2.9-2.9-5.8-2.9-2.901-2.901-2.9-2.9-2.9-2.9 2.9-2.901-2.9-5.8 2.9-5.801 2.9-2.9 8.701-5.801 2.901-2.9-5.801-5.801 5.801-5.8 2.9 2.9 2.9-2.9 2.9 2.9 2.901-2.9 2.9-2.901 5.801-2.9 2.9-8.701 5.801-8.701-2.901 2.901 5.801-5.801 5.8-5.801 5.801-5.8 2.9-5.801 8.701-2.9-5.8-5.801-2.901-5.8-2.9 2.9 8.701 5.8 5.801 2.901 5.8-2.901 5.805-2.9 2.9 5.801-2.9 2.9 2.9 2.9 2.9 2.901-2.9 2.9 2.9 2.9 11.6-2.9 2.9-5.801 5.8-14.501-2.9-5.801-2.9-2.9 2.9-5.801-2.9-2.9 2.9-2.9-2.9-17.402-2.9-2.9-5.8-2.901-5.8-2.9-2.9-2.9-2.9-11.602-5.805-11.601-2.9-2.9-5.801-2.9-2.9 2.9-11.601-2.9-5.801-2.901-14.501-5.8-2.901-2.901-5.8 2.901-5.801-5.801-14.501 2.9-5.801-2.9-2.9 2.9-2.901-2.9-2.9 2.9-14.501 2.901-23.203 5.8-14.501 2.901-2.901 2.9-5.8-2.9-8.701 2.9-5.801 2.9-29.003 2.9 2.9 2.901-2.9 8.701-2.9 2.9 2.9 2.9 11.601 2.901 2.901 2.9 2.9 2.9-8.701 2.901-5.801 2.9-5.8 5.8-5.801 8.701 2.9 2.901 2.901 2.9 8.701 2.9 5.8 5.801-2.9 2.9 11.601 2.901-11.601-2.901-2.9 11.601-5.801 5.801-5.801-2.9-2.9-2.901-2.9-2.9 2.9 2.9-2.9-2.9-5.801 2.9-2.9 2.901-2.9 8.701 2.9 5.8 2.9 2.901 2.9 2.9 2.901 2.9 2.9 5.801-2.9 2.9-2.901 2.9 2.901 5.801-5.801 2.9-5.8 5.801 2.9 5.801 2.9 5.8 14.502 2.901 5.8 2.9-2.9 5.8 2.9 5.801 2.901 2.9 5.8-5.8 2.901-14.502 5.8-2.9 2.9-2.9 2.901-5.801 8.701 5.801 2.9-2.901-2.9 2.901 8.701-2.901 5.8 2.901 2.901 17.401 2.9 2.901-2.9 5.8 2.9 5.801-2.9 5.801-8.701 8.701 2.9 2.9 5.801 2.9 2.9 2.9 2.9-2.9 2.9 2.9 2.901 2.901 5.8 5.8 2.901 2.901 2.9 2.9 2.9 2.9-2.9 2.901 2.9 5.8 2.901 2.901 17.401 5.8 2.901v8.701z" fill="#002279" fill-opacity=".22"/>
  <path d="M485.351 792.784l2.901 2.9 2.9 2.9-5.801 5.801-11.601 5.801 2.901 2.9-2.901 11.601-2.9-11.601-5.801 2.9-2.9-5.8-2.9-8.701-2.901-2.901-8.701-2.9-5.8 5.801-2.9 5.8-2.901 5.801-2.9 8.701-2.9-2.9-2.901-2.901-2.9-11.601-2.9-2.9-8.701 2.9-2.901 2.9-2.9-2.9-2.9 29.003-2.9 5.801 2.9 8.701-2.9 5.8-2.901 2.901-5.8 14.501-2.901 23.203-2.9 14.501 2.9 2.9-2.9 2.901 2.9 2.9-2.9 5.801 5.801 14.501-2.901 5.801 2.901 5.8 5.8 2.901 2.901 14.501 2.9 5.801-2.9 11.601 2.9 2.9 2.9 5.801 11.601 2.9 11.602 5.805 2.9 2.9 2.9 2.9 2.901 5.8 2.9 5.8 17.402 2.9 2.9 2.9 2.9-2.9 5.801 2.9 2.9-2.9 5.801 2.9 14.501 2.9 5.801-5.8 2.9-2.9-2.9-11.6-2.9-2.9-2.901 2.9-2.9-2.9-2.9-2.9-5.801 2.9 2.9-2.9 2.901-5.805-2.901-5.8-5.8-5.801-2.9-8.701 5.8 2.9 5.801 2.901 2.9 5.8 5.801-8.701 5.8-2.9 5.801-5.801 5.801-5.8-2.901-5.801 8.701 2.901 8.701-5.801 2.9-2.9 2.901-5.801 2.9-2.9-2.9-2.901 2.9-2.9-2.9-2.9 5.8-2.9 5.801-5.801 2.9 5.801 5.801-2.901 2.9-8.701 5.801-2.9 5.8-2.9 2.901 2.9 2.9-2.9 2.9 2.9 2.901 2.9 2.9 2.901 2.9 5.8 2.901-2.9 11.601 2.9 5.8-2.9 11.602 2.9 2.9 5.801 2.9 2.9 11.601-2.9-2.9-5.801-2.9-2.9-5.801-11.601 2.901 2.9 5.8-2.9v-8.701l-5.8-2.901-2.901-17.401-5.8-2.901-2.901-2.9-2.9 2.9-2.9-2.9-2.901-2.9-5.8-2.901-2.901-5.8-2.9-2.901 2.9-2.9-2.9-2.9-2.9-2.9-2.9-5.801-8.701-2.9-5.801 8.701-5.801 2.9-5.8-2.9-2.901 2.9-17.401-2.9-2.901-2.901 2.901-5.8-2.901-8.701 2.901 2.9-5.801-2.9 5.801-8.701 2.9-2.901 2.9-2.9 14.502-5.8 5.8-2.901-2.9-5.8-5.801-2.901-5.8-2.9-2.9 2.9-2.901-5.8-5.8-14.502-5.801-2.9-5.801-2.9-2.9 5.8-5.801 5.801-2.9-2.901-2.9 2.901-5.801 2.9-2.9-2.9-2.9-2.901-2.901-2.9-5.8-2.9-8.701-2.9-2.901 2.9-2.9 2.9 2.9 5.801zm0 0l-2.9 2.9" stroke="#FFAF51" stroke-opacity=".13" stroke-width="2" stroke-linejoin="round"/>
  <path fill-rule="evenodd" clip-rule="evenodd" d="M528.856 511.454l-11.601-2.9-2.901-8.701-2.9-2.901-5.801-2.9-2.9 2.9-2.9-5.8-2.901-5.801 5.801-8.701-2.9-2.9-2.901-2.9-2.9-5.801-2.9 2.9-11.601-2.9-5.801-2.9-8.701 2.9-2.9-5.801-2.901-2.9 2.901-5.8-2.901-2.901-2.9 2.901-2.9-5.801-2.9-5.801-2.901-2.9-8.701-5.801-14.501 2.901-2.901-8.701 2.901-5.801-2.901-2.9 2.901-2.9 2.9-2.901-2.9-5.8-2.901-5.801 2.901-5.801 2.9-5.8 2.9-2.901-5.8-8.7 5.8-5.801 5.801-5.801 2.9-2.9 2.901-2.9 2.9 2.9 2.9-2.9 2.901 2.9 2.9-2.9 11.601 2.9 5.801 8.701 2.9 8.701 5.801-5.801 5.8-2.9 5.801 2.9 14.501-5.8 2.901 2.9 11.601 2.9 5.801-2.9 5.8-2.9 2.9-2.901-2.9-5.8-2.9-2.901-2.9-2.9-2.901-2.9-11.601-2.9-5.801-2.901 2.901-2.9 2.9-2.9 2.9-5.801 2.901-5.801 5.8-2.9 2.901-2.9 2.9-5.801 5.8-5.8 5.801-5.801 2.9-5.801-2.9-5.8 2.9-5.801 2.901-5.801 8.701-2.9 2.9 2.9 2.9-5.8-8.701-5.801-2.9-2.9-2.9-2.9-2.901-2.901-2.9 2.901-2.9-2.901-2.901-2.9-2.9-5.801-8.701-2.9-5.8-2.9 2.9-8.701 2.9-2.9 2.901-2.901 2.9-5.8-2.9-2.901 2.9-2.9 2.9-14.502-5.8-2.9-2.901-5.8-2.9-2.901-2.9-2.9-2.901-2.9-5.8-2.901-2.901-2.9-2.9-11.601-2.9-2.901-2.901-2.9-2.9-8.701-11.601-5.8-2.9-2.901-2.901-8.701-2.9-2.9-2.9-5.801-5.801-5.8-5.801-2.9-2.9-5.801-2.9-2.9-2.9-2.901-2.901-2.9-2.9-2.9 2.9-14.502 5.801-5.8 5.8-5.801 8.701 5.8 5.801 14.502 2.9 2.9 2.901 2.901 2.9 2.9 2.9-2.9 8.701 2.9 5.801-2.9 5.8 2.9 2.901 2.9 5.8-5.8-2.9-11.602-2.9-2.9-2.901-2.9-2.9-8.701-2.9-5.8 2.9-5.801 5.801-14.502 2.9 5.8 2.9-2.9 8.701 2.9 11.601-2.9 5.801-2.9 2.9-2.9 11.602-2.9 2.9 2.9 2.9 2.9 8.701 5.8 11.601-2.9 2.901-20.302-2.901-14.501L583.962 6.8l5.8-5.801 2.901 2.9 8.701 5.8 2.9 2.901 8.701 2.9 2.9-2.9 2.9 2.9 2.901 11.602-2.901 5.8-5.8 8.701 2.9 11.602-5.801 2.9 5.801 8.7 5.801 11.602 2.9 2.9 2.9 2.9 2.901 2.9 2.9 2.901-2.9 2.9-2.901 5.801 2.901 2.9 5.8 5.801 5.801 2.9 5.8 2.901 2.901 5.8 8.701 2.901 8.701 11.601 2.9 2.9 2.9 8.701 2.9-5.801 5.801 2.901 2.9 2.9 8.701 2.9 5.801 2.901 5.801 5.8 2.9 2.901 2.9 2.9-2.9 5.8-2.9 2.901-5.801 2.9 2.9 5.801-5.8 2.9-2.901 2.9-5.8 2.901 2.9 5.8-5.801 5.801-2.9 2.9-11.601 2.9-2.9-2.9-5.801-5.8 2.9 11.601-2.9 26.103-5.801-2.901-2.9-2.9-5.801 2.9-2.9 2.901-2.9 2.9-8.701 2.9-2.9 5.801-2.901 5.8 2.901 2.901-2.901 2.9-5.8 17.402 2.9 5.8-2.9 2.901 2.9 5.8 2.9 8.701 2.901 11.602-2.901 5.8-5.8 5.801-5.801-2.901-2.9 2.901-5.801 2.9-2.9 2.9 8.701 2.901 8.701 2.9 2.9 2.9 2.9 5.801 2.901 2.9-2.901 2.901-2.9 2.9-2.9 2.9-2.901 14.502 5.801 5.8-5.801 2.901 2.901 5.8 5.8 5.801 2.901-2.901 2.9 2.901-2.9 2.9 2.9 5.801 5.8 14.501 2.901 2.901-5.801 2.9-2.9 2.9-2.9 2.9-2.901 2.901 2.901 8.701-5.801 5.8 5.801 2.901 5.8 5.8-2.9 2.901 2.9 5.8-2.9 5.801 2.9 2.9 8.701-2.9 2.9 2.9 2.901 5.801 5.8 5.8-2.9 2.901-2.9 5.8-8.701 11.601-14.502 17.402-2.9 2.901-2.9 2.9-2.901 2.9-5.8 5.801-2.901-2.9-2.9 2.9 2.9-8.701-2.9-2.9-8.701-5.801-2.9 2.9-2.9-2.9-8.701 5.801-8.701-2.901-2.901-5.8-5.8-2.901-8.701-2.9-14.502-2.9-5.8 11.601-2.901 2.9-5.8-2.9z" fill="#002279" fill-opacity=".22" stroke="#FFAF51" stroke-opacity=".13" stroke-width="2" stroke-linejoin="round"/>
  <path fill-rule="evenodd" clip-rule="evenodd" d="M749.279 641.968l2.9-8.701 5.801-2.9 2.9-5.801-2.9-2.9-2.9-8.701-2.901-2.901 2.901-2.9-2.901-5.8 2.901-2.901-2.901-2.9 2.901-8.701 2.9-5.801-2.9-2.9-2.901-5.801-2.9-2.9-5.801-2.9-2.9-8.701-2.9-2.9-2.901-8.701 2.901-2.901 2.9-8.701-2.9-2.9 2.9-2.9 5.801-2.9 2.9 2.9 5.801-5.801-2.901-5.8-5.8-2.901-2.901-2.9 5.801-5.801 2.9-2.9 2.901-5.801 5.8-2.9 2.901-2.9 5.8-5.801 2.9-2.9 2.901-11.601 2.9-5.801 2.9-2.9 8.701-2.901 2.901 2.901 5.8-2.901 5.801-2.9 5.8-2.9 2.901-2.9 2.9-2.901 2.9 2.901 2.901 2.9 5.8-2.9 2.901-2.901 8.701-5.8 5.8-2.901 2.9 2.901 2.901-2.901 5.8-2.9 8.701 2.9 8.701-2.9 2.901 2.9 5.8 2.901 5.801 2.9 2.9 5.801 2.9 11.601 2.901 2.9 2.9 5.801 5.801 14.501 2.9 2.901 2.9 2.9-2.9 2.9 2.9 5.801 8.701-2.901 8.701-2.9 2.9 14.502 2.901 5.8-2.901 5.801 2.901 2.9 2.9 5.801 2.9 2.9 2.901-2.9 11.601 2.9 2.9 5.801-5.801 5.8 2.901 2.901 2.9 2.9-5.801 2.9 2.901 5.801 5.8-2.9 5.801 2.9-2.9 2.9-5.801 2.901-5.801 2.9-8.7-2.9-2.901 2.9-2.9 2.9 2.9 2.9 2.901 5.801-5.801 2.9 2.9 2.901-2.9 5.8-8.701 2.901-5.801-5.801-2.9 2.9-5.801 8.701-2.9 2.901-8.701 2.9-2.9 5.8-2.9-2.9-2.901-2.9-11.601 2.9-2.9 2.9-2.9 2.901-5.801 2.9-2.9 8.701-5.801 5.801-2.9-2.901-2.901-5.8 2.901 5.8-5.801 2.901-2.9-2.901-5.801-2.9-8.701 8.701-11.601-5.801-14.502 2.901-2.9 2.9-5.8-2.9-2.901 2.9-5.8 2.9-5.801 5.801-2.9 5.8-2.901 2.901-2.9 2.9 2.9 2.9-2.9-2.9-2.9 2.9-2.901-2.9-5.8 2.9-2.9-5.8-11.602-5.801-2.9-2.9z" fill="#002279" fill-opacity=".22"/>
  <path d="M859.491 627.466l2.9 2.901 5.801-5.801 2.9-8.701 5.801-2.9 2.9-2.901 2.9-2.9 11.601-2.9 2.901 2.9 2.9 2.9 2.9-5.8 8.701-2.9 2.9-2.901 5.801-8.701 2.9-2.9 5.801 5.801 8.701-2.901 2.9-5.8-2.9-2.901 5.801-2.9-2.901-5.801-2.9-2.9 2.9-2.9 2.901-2.9 8.7 2.9 5.801-2.9 5.801-2.901 2.9-2.9-5.801-2.9-5.8 2.9-2.901-5.801 5.801-2.9-2.9-2.9-2.901-2.901 5.801-5.8-2.9-5.801-11.601-2.9-2.901 2.9-2.9-2.9-2.9-5.801-2.901-2.9 2.901-5.801-2.901-5.8-2.9-14.502-8.701 2.9-8.701 2.901-2.9-5.801 2.9-2.9-2.9-2.9-2.9-2.901-5.801-14.501-2.9-5.801-2.901-2.9-2.9-11.601-2.9-5.801-5.801-2.9-5.8-2.901-2.901-2.9-8.701 2.9-8.701-2.9-5.8 2.9-2.901 2.901-2.9-2.901-5.8 2.901-8.701 5.8-2.901 2.901-5.8 2.9-2.901-2.9-2.9-2.901-2.9 2.901-2.901 2.9-5.8 2.9-5.801 2.9-5.8 2.901-2.901-2.901-8.701 2.901-2.9 2.9-2.9 5.801-2.901 11.601-2.9 2.9-5.8 5.801-2.901 2.9-5.8 2.9-2.901 5.801-2.9 2.9-5.801 5.801 2.901 2.9 5.8 2.901 2.901 5.8-5.801 5.801-2.9-2.9-5.801 2.9-2.9 2.9 2.9 2.9-2.9 8.701-2.901 2.901 2.901 8.701 2.9 2.9 2.9 8.701 5.801 2.9 2.9 2.9 2.901 5.801 2.9 2.9-2.9 5.801-2.901 8.701 2.901 2.9-2.901 2.901 2.901 5.8-2.901 2.9 2.901 2.901 2.9 8.701 2.9 2.9-2.9 5.801-5.801 2.9-2.9 8.701 2.9 2.9 11.602 5.801 2.9 5.8 5.8-2.9 2.901 2.9 2.9-2.9m81.209-26.103l-2.901-5.8m2.901 5.8l-5.801 2.901-2.9-2.901-5.801-2.9-8.701 8.701-11.601-5.801-14.502 2.901-2.9 2.9-5.8-2.9-2.901 2.9-5.8 2.9-5.801 5.801-2.9 5.8-2.901 2.901-2.9 2.9m0 0l2.9 2.9" stroke="#FFAF51" stroke-opacity=".13" stroke-width="2" stroke-linejoin="round"/>
  <path fill-rule="evenodd" clip-rule="evenodd" d="M737.677 531.756l-5.8 2.9-2.901 2.901-2.9-2.901-2.9-2.9-5.801-2.9 2.9-2.9-5.8-5.801-2.9-2.9-2.901-8.701-2.9-2.901 2.9-2.9-2.9-5.801-5.801-5.8-2.9-5.801-2.9-5.8-8.701 2.9-2.901 5.801-5.8 8.7-5.801-2.9-5.8 2.9-2.901 2.901-5.8 5.8-8.701-2.9-5.801-2.9 5.801-14.502 5.8-5.8 2.901-2.901-2.901-5.8-2.9-5.801-5.8-2.9-8.701 2.9-2.901-2.9 2.901-5.801-2.901-5.8 2.901-2.901-5.801-5.8-5.801-2.901 5.801-5.8-2.9-2.901 2.9-8.7 2.9-2.901 2.901-2.9 5.8-2.9-2.9-2.901-5.801-2.9-2.9-11.601 2.9-8.701-2.9-2.9-2.9 2.9-5.801-5.801-2.9-5.8 5.8-2.901-5.8-2.9 2.9-5.801 2.9-14.501 2.901-2.9 2.9-2.901-2.9-2.9-2.901-2.9-2.9-5.801-5.801-2.9-5.8-2.901-2.9-2.9 5.8-2.9 2.9-2.901 5.801 2.901 5.801-2.901 2.9-2.9-2.9-11.601-2.901-8.701-2.9-8.701 2.9-2.9-2.9-5.801 5.801-5.8 2.9-17.402-2.9-2.901 2.9-5.8 2.9-2.9 5.801-5.801 5.801-2.9 2.9-2.901 2.9-2.9 5.801 2.9 5.8 2.901 2.901-2.901-2.901-31.903 5.801 2.9 2.9 2.901 5.801-2.901 8.701-2.9 5.8-5.801-2.9-5.8 5.801-2.901 2.9-2.9 2.9-2.9 5.801-5.801 2.9-2.9 2.901-2.9 2.9 2.9 2.9 2.9 2.9 11.601 11.602 5.801 5.8 17.402 2.901 5.8 8.701 5.801 2.9 2.9 5.8 5.801 2.901 2.9 8.701 2.901 5.8 2.9 8.701-2.9 11.601-2.901 8.701 2.901 2.901-2.901 5.8-2.9 11.602 5.801 5.8-2.901 2.9 2.901 20.303 2.9 2.9-2.9 5.801 2.9 11.601 2.9 5.8 2.901 2.901 2.9 2.9 2.9 5.801-2.9 5.8 2.9 2.9 2.9 2.901 2.901 5.8 2.9 14.502 2.9 5.801-2.9 2.9-2.9 2.9-5.801 11.601-2.9 8.701-2.9 11.602-2.901 2.9 2.901 8.701 2.9 2.9-2.9 5.801 5.8 14.506-2.9 2.9 2.9 8.7 2.9 2.9 5.801-2.9 5.801-2.9 5.8-5.8 5.801-5.805-5.801-2.9-2.9-2.901-2.9-2.9 2.9-2.9 2.9-5.801 8.701-2.9 2.9-2.901-2.9-2.9-2.9-5.8 17.402 2.9 2.9 2.9 5.801 2.9 8.701-2.9 5.8-8.701-2.9-2.9 2.9-2.9 2.9-5.801 2.901-2.9-2.901-2.901-2.9-8.701-5.8-8.7 2.9-2.901-2.9-11.601 8.7-11.601 2.901-8.701 5.8-5.801 2.901 2.901 8.701 2.9 8.701 2.9 2.9-2.9 2.9-2.9-2.9-2.901 2.9-5.8-2.9-2.901 2.9-5.8-2.9-2.901 2.9-2.9 5.801 2.9 5.8 8.701 8.701-2.9 2.901 2.9 2.9 2.901 8.701 8.701 2.9 2.9 5.801-2.9 5.8-2.901 5.801-5.8 5.801 2.9 11.601-2.9 2.9-2.901 2.9-2.9 5.801-5.801 2.9-14.501-2.9-5.801 2.9-2.9 2.901-2.9-2.901-2.901 2.901-5.8 5.8-8.701 2.901-2.9 2.9-5.801-2.9-2.9-2.901-2.901 2.901-2.9 2.9-5.801 2.9-2.9 2.901-2.9 2.9-8.701-2.9-5.801 2.9-5.8 2.9-2.901 5.801-2.9 2.9-2.9 11.601-2.901 5.801-2.9 2.9-8.701 2.9-2.9 5.801-2.9 2.9-5.801 5.801 2.9 2.9 2.901 2.901 5.8 5.8-5.8 5.801-2.901-2.9-5.8 2.9-2.901 2.9zm-472.749-23.202l-2.901-5.801-2.9-5.801-2.9-2.9-2.901-11.601 2.901-2.9-5.801-2.901-2.9-2.9-2.9-2.9 2.9-2.901-2.9-2.9-2.901-11.601-2.9-2.9-14.502-2.901-8.7-8.701-11.602-2.9-20.302-29.003-2.9-5.801-2.9-2.9-5.801-2.9 2.9-14.502-2.9 2.901 2.9-11.602 2.901-8.701-8.701-2.9-11.602 2.9-2.9-5.8 2.9-5.801 2.901-8.701 2.9-2.9 2.9-5.801 5.801-5.8 2.9-2.901 2.901-2.9 2.9-2.9 2.9 2.9 11.601-2.9 2.901-17.402 8.701-2.9 5.8 2.9 5.801-2.9 8.701-2.901 2.9-5.8 8.701-5.801 8.701 2.9 8.701 2.901 8.701 2.9 5.8 8.701 2.901 5.801 5.8-2.901 14.502-14.501 2.9 5.8 5.801-2.9 5.8-2.9 5.801-2.901 5.801-5.8 2.9-2.901 8.701-2.9 8.701-2.9-2.901-2.9 5.801-8.701 5.801-8.701 5.8 2.9 8.701-5.801 2.9-5.8 2.901-17.402 2.9-2.9 2.9-8.701 5.801-5.801 2.9-2.9 5.801-2.9 5.801-8.701-2.901-2.901 2.901-5.8 5.8-11.602 8.701 2.901 2.9 5.8 2.901 5.801 2.9 2.9 8.701 2.901 5.8 2.9 2.901-11.601 5.8-2.901 2.901 2.901 29.003-5.801 8.701 2.9 2.9 2.901 2.9 2.9 8.701-2.9 5.801 2.9 5.8-2.9 8.701 2.9 2.901 2.9 2.9 2.901 2.9-2.901 2.901 11.602-2.901 14.501 2.901 5.801-2.901 2.9-2.9 5.801-2.9 2.9-2.901 8.701 5.801 2.9 2.9 2.9 8.701 2.901 2.901 5.8 2.9 2.901 2.9-2.901 2.9 2.901 2.901 2.9 2.9 2.9 2.9 5.801 2.901 5.8-2.901-2.9-5.8 2.9-5.801 2.901-2.9 8.701 2.9 5.8-2.9 5.801-2.9 5.801-5.801 5.8-2.9 5.801-5.801 2.9-5.801 2.9-2.9 5.801-2.9 5.801-2.901 2.9-2.9 2.9 2.9 2.901 5.801 2.9 11.601 2.9 2.901 2.9 2.9 2.901 2.9 2.9-2.9 5.801-2.9 2.9-8.701 2.9-2.901-2.9-11.601-2.9-2.9 5.8-17.402-2.9-2.9 2.9-8.701 5.801-2.901-2.9-5.8-5.801-2.9-11.601-11.602 2.9-2.9-2.9-2.9 2.9-2.901-2.9-2.9 2.9-2.9 2.9-5.801 5.801-5.8 5.801 5.8 5.8-2.9 5.801-2.9 2.9-2.901 8.701 2.901 2.9 2.9 8.701-2.9 2.901-2.901 2.9 2.901 2.9-2.901 2.901 2.901 5.8-2.901 8.701-2.9 2.9-5.801-5.8-2.9 2.9-2.9-2.9-2.901 2.9-8.7 2.9-2.901-2.9-8.701-2.9-8.701 5.8-5.8 5.801-2.901-2.9-2.9 2.9-8.701 2.9-2.9 5.801 2.9 2.9 2.901 2.901-5.801 2.9-2.9-2.9 2.9 5.8-2.9 2.9 2.9 5.801-2.9 2.9-2.901 2.901-5.8-5.801-5.801-5.801-11.601-2.9-5.801-2.9-8.701 5.8 2.901 5.801-2.901 2.9-5.8 2.901-8.701-5.801-2.901-8.701-8.7 2.9-8.701 2.901-2.901 2.9 2.901 8.701 2.9 2.9-2.9 2.901-2.901 2.9 2.901 5.8-2.901 8.701-5.8 2.901z" fill="#002279" fill-opacity=".22" stroke="#FFAF51" stroke-opacity=".13" stroke-width="2" stroke-linejoin="round"/>
</svg>
