<svg xmlns="http://www.w3.org/2000/svg" fill="none" viewBox="0 0 843 87">
  <path d="M832.545 4l1.391 1.437L837.484 2h-4.939v2zm-81.562 79v2h.81l.582-.563L750.983 83zm-286.375 0v-2h-3.841l2.202 3.147L464.608 83zm1.4 2l-1.639 1.147.598.853h1.041v-2zm285.785 0v2h.81l.581-.563L751.793 85zm.291-.282l-1.392-1.436 1.392 1.436zm83.626-81l1.392 1.437-1.392-1.437zM837.484 2l1.392 1.437L842.424 0h-4.94v2zM372.006 85v2h1.042l.597-.853L372.006 85zm1.4-2l1.639 1.147L377.248 81h-3.842v2zM4 3a1 1 0 01-1 1V0a3 3 0 00-3 3h4zM3 2a1 1 0 011 1H0a3 3 0 003 3V2zm829.545 0H3v4h829.545V2zm-80.17 82.437l81.561-79-2.783-2.874-81.561 79 2.783 2.874zM464.608 85h286.375v-4H464.608v4zm-1.639-.853l1.4 2 3.277-2.294-1.4-2-3.277 2.294zM751.388 83h-285.38v4h285.38v-4zm.405 0h-.405v4h.405v-4zm-1.101.282l-.291.281 2.783 2.874.291-.282-2.783-2.873zm83.627-81l-83.627 81 2.783 2.873 83.627-81-2.783-2.873zm1.774-1.719l-1.774 1.719 2.783 2.873 1.774-1.718-2.783-2.874zM835.014 4h2.47V0h-2.47v4zM3 4h832.014V0H3v4zm370.645 82.147l1.4-2-3.277-2.294-1.4 2 3.277 2.294zM86.626 85h286.78v-4H86.626v4zm1-1a1 1 0 01-1 1v-4a3 3 0 00-3 3h4zm-1-1a1 1 0 011 1h-4a3 3 0 003 3v-4zm285.38 0H86.626v4h285.38v-4z" fill="url(#gSfhPLH2pQa)"/>
  <defs>
    <linearGradient id="gSfhPLH2pQa" x1="787.747" y1="11.882" x2="51.737" y2="11.882" gradientUnits="userSpaceOnUse">
      <stop stop-color="#02FAFC" stop-opacity=".01"/>
      <stop offset=".13" stop-color="#52FDF2" stop-opacity=".01"/>
      <stop offset=".496" stop-color="#fff"/>
      <stop offset=".81" stop-color="#7EFEF1" stop-opacity=".01"/>
      <stop offset="1" stop-color="#3DFCFF" stop-opacity=".01"/>
    </linearGradient>
  </defs>
</svg>
