<svg xmlns="http://www.w3.org/2000/svg" fill="none" viewBox="0 0 847 87">
  <path d="M5 2V0H.06l3.55 3.437L5 2zm1.774 1.718L5.383 5.155l1.391-1.437zm83.626 81l-1.391 1.437 1.391-1.437zm.291.282L89.3 86.437l.582.563h.81v-2zm285.785 0v2h1.041l.598-.853L376.476 85zm1.4-2l1.639 1.147L381.718 81h-3.842v2zM91.501 83l-1.391 1.437.581.563h.81v-2zM9.94 4V2H5l3.548 3.437L9.94 4zm827.075 0l1.392 1.437L841.954 2h-4.94v2zm-81.561 79v2h.81l.581-.563L755.453 83zm-286.375 0v-2h-3.842l2.203 3.147L469.078 83zm1.4 2l-1.639 1.147.597.853h1.042v-2zm285.785 0v2h.809l.582-.563L756.263 85zm.29-.282l-1.391-1.436 1.391 1.436zm83.627-81l-1.392-1.436 1.392 1.436zM841.954 2l1.391 1.437L846.894 0h-4.94v2zM5 4h2.47V0H5v4zm3.165-1.718L6.391.563 3.61 3.437l1.774 1.718 2.782-2.873zm83.627 81l-83.627-81-2.782 2.873 83.626 81 2.783-2.873zm.29.281l-.29-.281-2.783 2.873.29.282 2.784-2.874zM91.097 83h-.405v4h.405v-4zm285.38 0H91.096v4h285.38v-4zm1.639 3.147l1.4-2-3.277-2.294-1.4 2 3.277 2.294zM91.501 85h286.375v-4H91.501v4zM8.548 5.437l81.562 79 2.783-2.874-81.562-79-2.783 2.874zM837.014 2H9.939v4h827.075V2zm-80.17 82.437l81.562-79-2.783-2.874-81.562 79 2.783 2.874zM469.078 85h286.375v-4H469.078v4zm-1.639-.853l1.4 2 3.277-2.294-1.4-2-3.277 2.294zM755.858 83h-285.38v4h285.38v-4zm.405 0h-.405v4h.405v-4zm-1.101.282l-.291.281 2.783 2.874.291-.282-2.783-2.873zm83.626-81l-83.626 81 2.783 2.873 83.626-81-2.783-2.873zm1.775-1.719l-1.775 1.719 2.783 2.873 1.774-1.718-2.782-2.874zM839.484 4h2.47V0h-2.47v4zM7.47 4h832.014V0H7.47v4z" fill="url(#7o52z3CfWZa)"/>
  <defs>
    <linearGradient id="7o52z3CfWZa" x1="54.825" y1="11.882" x2="54.825" y2="85" gradientUnits="userSpaceOnUse">
      <stop stop-color="#02FAFC" stop-opacity=".01"/>
      <stop offset=".775" stop-color="#01ADF9" stop-opacity=".775"/>
      <stop offset="1" stop-color="#01ADF9"/>
    </linearGradient>
  </defs>
</svg>
